<?xml version="1.0" encoding="UTF-8" standalone="no"?>
<!-- Created with Inkscape (http://www.inkscape.org/) -->

<svg
   xmlns:dc="http://purl.org/dc/elements/1.1/"
   xmlns:cc="http://creativecommons.org/ns#"
   xmlns:rdf="http://www.w3.org/1999/02/22-rdf-syntax-ns#"
   xmlns:svg="http://www.w3.org/2000/svg"
   xmlns="http://www.w3.org/2000/svg"
   xmlns:sodipodi="http://sodipodi.sourceforge.net/DTD/sodipodi-0.dtd"
   xmlns:inkscape="http://www.inkscape.org/namespaces/inkscape"
   version="1.1"
   width="288.86832"
   height="190"
   id="svg3054"
   inkscape:version="0.48.5 r10040"
   sodipodi:docname="sticker2.svg">
  <sodipodi:namedview
     pagecolor="#ffffff"
     bordercolor="#666666"
     borderopacity="1"
     objecttolerance="10"
     gridtolerance="10"
     guidetolerance="10"
     inkscape:pageopacity="0"
     inkscape:pageshadow="2"
     inkscape:window-width="1521"
     inkscape:window-height="877"
     id="namedview23"
     showgrid="true"
     fit-margin-top="0"
     fit-margin-left="0"
     fit-margin-right="0"
     fit-margin-bottom="0"
     inkscape:zoom="3.5345443"
     inkscape:cx="100.75879"
     inkscape:cy="74.894618"
     inkscape:window-x="0"
     inkscape:window-y="31"
     inkscape:window-maximized="0"
     inkscape:current-layer="layer1" />
  <defs
     id="defs3056">
    <inkscape:path-effect
       effect="spiro"
       id="path-effect3834-2"
       is_visible="true" />
    <inkscape:path-effect
       effect="spiro"
       id="path-effect3830-6"
       is_visible="true" />
    <inkscape:path-effect
       effect="spiro"
       id="path-effect3826-9"
       is_visible="true" />
    <inkscape:path-effect
       effect="spiro"
       id="path-effect3775-1"
       is_visible="true" />
    <inkscape:path-effect
       effect="spiro"
       id="path-effect3771-8"
       is_visible="true" />
    <inkscape:path-effect
       effect="spiro"
       id="path-effect3767-4"
       is_visible="true" />
  </defs>
  <metadata
     id="metadata3059">
    <rdf:RDF>
      <cc:Work
         rdf:about="">
        <dc:format>image/svg+xml</dc:format>
        <dc:type
           rdf:resource="http://purl.org/dc/dcmitype/StillImage" />
        <dc:title></dc:title>
      </cc:Work>
    </rdf:RDF>
  </metadata>
  <g
     transform="translate(-175.26439,-144.24008)"
     id="layer1">
    <rect
       width="288.86832"
       height="190"
       x="175.26439"
       y="144.24008"
       id="rect3099"
       style="fill:#f3eed6;fill-opacity:1;stroke:none" />
    <text
       x="233.94666"
       y="243.82709"
       id="text3757"
       xml:space="preserve"
       style="font-size:59.34935379px;font-style:italic;font-weight:normal;line-height:125%;letter-spacing:0px;word-spacing:0px;fill:#df5041;fill-opacity:1;stroke:none;display:inline;font-family:Sans;-inkscape-font-specification:FFF Tusj Bold Italic"
       sodipodi:linespacing="125%"><tspan
         x="233.94666"
         y="243.82709"
         id="tspan3759"
         style="font-size:59.34935379px;font-style:italic;font-variant:normal;font-weight:bold;font-stretch:normal;fill:#df5041;fill-opacity:1;font-family:FFF Tusj;-inkscape-font-specification:FFF Tusj Bold Italic">ASM</tspan></text>
    <path
       d="m 180.89996,239.70561 c 0.98426,-0.58383 1.96558,-1.17262 2.94391,-1.76635 3.76497,-2.28488 7.48515,-4.64257 11.21103,-6.99065 4.10623,-2.58779 8.21969,-5.16411 12.3403,-7.72893 2.33215,-1.6042 4.68762,-3.17451 7.0654,-4.71027 4.89357,-3.16066 9.88183,-6.17511 14.71959,-9.42053 4.66306,-3.12822 9.18333,-6.46929 13.54201,-10.00932 l 13.83111,-8.50121 16.78562,-10.92863 14.1308,-8.83175 14.71957,-8.83175 11.18689,-7.0654 6.47662,-4.71027 10.00931,6.47662 11.18688,8.83175 13.54202,8.24296 9.42053,6.47662 c 5.00674,3.48035 10.11226,6.81858 15.30836,10.00932 5.02079,3.08309 10.12614,6.02848 15.30837,8.83174 l 14.71958,8.83175 11.77566,7.65418 13.8358,9.29442 13.24824,8.95787 10.89248,7.35979"
       id="path3765"
       style="fill:none;stroke:#df5041;stroke-width:1.79991055;stroke-linecap:butt;stroke-linejoin:miter;stroke-miterlimit:4;stroke-opacity:1;stroke-dasharray:none;display:inline"
       inkscape:connector-curvature="0" />
    <path
       d="m 322.20794,329.78945 15.30836,-8.83175 c 3.0129,-1.9562 6.07357,-3.83883 9.17835,-5.64565 2.40987,-1.40242 4.84631,-2.75916 7.30758,-4.06927 l 9.73427,-6.2868 11.17968,-6.05283 12.51462,-8.60539 8.60981,-4.34672 12.12968,-8.5633 7.0654,-4.41588 6.21527,-4.47902 7.67335,-6.17128 12.01784,-9.07393 11.18689,-7.65419 3.85942,-2.27707 2.73495,-2.19768"
       id="path3769"
       style="fill:none;stroke:#df5041;stroke-width:1.79991055;stroke-linecap:butt;stroke-linejoin:miter;stroke-miterlimit:4;stroke-opacity:1;stroke-dasharray:none;display:inline"
       inkscape:connector-curvature="0" />
    <path
       d="m 181.48874,239.70561 5.31818,3.81331 8.81262,6.19601 12.9562,7.05728 10.07621,6.43414 14.06093,10.05991 c 4.80683,3.6685 9.7159,7.20303 14.71959,10.5981 4.82105,3.27114 9.72993,6.41283 14.71958,9.42053 l 11.18688,5.88783 6.83063,4.44182 10.60806,6.10262 9.65912,6.21676 6.46283,3.84622 5.29905,3.53269 5.29905,2.94392 3.5327,2.35514 1.76635,0.58878"
       id="path3773"
       style="fill:none;stroke:#df5041;stroke-width:1.79991055;stroke-linecap:butt;stroke-linejoin:miter;stroke-miterlimit:4;stroke-opacity:1;stroke-dasharray:none;display:inline"
       inkscape:connector-curvature="0" />
    <text
       x="323.04706"
       y="297.28708"
       id="text3788"
       xml:space="preserve"
       style="font-size:57.59713745px;font-style:normal;font-variant:normal;font-weight:bold;font-stretch:normal;line-height:125%;letter-spacing:0px;word-spacing:0px;fill:#df5041;fill-opacity:1;stroke:none;display:inline;font-family:FFF Tusj;-inkscape-font-specification:FFF Tusj Bold"
       sodipodi:linespacing="125%"><tspan
         x="323.04706"
         y="297.28708"
         id="tspan3792"
         style="font-size:57.59713745px;font-style:italic;font-variant:normal;font-weight:bold;font-stretch:normal;text-align:center;text-anchor:middle;fill:#df5041;fill-opacity:1;font-family:FFF Tusj;-inkscape-font-specification:FFF Tusj Bold Italic">16</tspan></text>
    <path
       d="m 185.7776,239.28594 6.81083,-2.89822 c 2.6268,-1.68104 4.98072,-3.62934 7.6274,-5.27892 4.28762,-2.67231 9.16692,-6.15194 13.5054,-8.74086 l 10.35897,-4.73129 15.65503,-11.95634 14.32092,-9.27663 9.15932,-6.24499 c 4.05542,-2.58925 8.08034,-5.22627 12.07364,-7.91032 4.05758,-2.72725 8.08251,-5.50307 12.07365,-8.32665 l 15.82064,-8.40832 8.32665,-4.99599 7.49399,-6.57966 7.07765,4.16333 7.49399,5.82866 9.99199,7.91032 12.48997,9.99198 c 3.60981,2.21785 7.21803,4.43829 10.82465,6.66132 3.60662,2.22303 7.21166,4.44865 10.82465,6.66132 3.87667,2.37416 7.76248,4.7334 11.65731,7.07766 l 13.73898,8.32665 11.65731,7.07766 c 4.14782,2.2723 8.17317,4.76814 12.05275,7.47308 2.94588,2.05395 5.80702,4.22779 8.76389,6.26589 2.56845,1.77037 5.20806,3.43749 7.91032,4.99599 l 6.66132,3.747 0.41633,0.41633"
       id="path3824"
       style="fill:none;stroke:#df5041;stroke-width:1.79991055;stroke-linecap:butt;stroke-linejoin:miter;stroke-miterlimit:4;stroke-opacity:1;stroke-dasharray:3.5998209, 3.5998209;stroke-dashoffset:0;display:inline"
       inkscape:connector-curvature="0"
       sodipodi:nodetypes="ccscccccsccccccccsscccssccc" />
    <path
       d="m 321.91836,325.88313 4.996,-2.91433 8.32665,-4.57966 c 3.76228,-1.91321 7.50943,-3.85617 11.24098,-5.82865 3.62307,-1.91514 7.23143,-3.8581 10.82465,-5.82866 l 5.51381,-5.11106 c 3.21687,-2.56447 6.51596,-5.02579 9.8905,-7.37892 3.10847,-2.16759 6.28095,-4.24338 9.51192,-6.22374 3.40953,-1.84859 6.76345,-3.79973 10.05571,-5.8499 3.39852,-2.11634 6.73132,-4.33821 9.99199,-6.66133 l 7.49398,-5.41232 6.24499,-4.57966 10.39914,-6.67714 6.27133,-3.69607 c 3.06512,-2.19581 6.05,-4.50362 8.94668,-6.91729 1.80435,-1.50348 3.57448,-3.04802 5.30856,-4.63202 l 3.6299,-3.05744 0.83267,-0.83267"
       id="path3828"
       style="fill:none;stroke:#df5041;stroke-width:1.79991055;stroke-linecap:butt;stroke-linejoin:miter;stroke-miterlimit:4;stroke-opacity:1;stroke-dasharray:3.5998209, 3.5998209;stroke-dashoffset:0;display:inline"
       inkscape:connector-curvature="0" />
    <path
       d="m 186.61026,238.86961 6.24499,3.33066 7.07766,4.99599 5.82865,4.16333 9.99199,6.24499 7.91032,4.99599 6.50274,3.77267 6.8199,4.55398 7.07766,4.16333 7.23871,4.45202 7.72511,4.69924 4.60381,2.92239 9.15932,5.82866 c 3.62091,2.53372 7.32105,4.95419 11.09321,7.25669 2.24473,1.37017 4.51495,2.69857 6.80909,3.98428 3.64201,1.87923 7.25097,3.82252 10.82465,5.82866 3.36251,1.8876 6.69377,3.83084 9.99198,5.82866 l 8.32665,4.99599 3.33066,2.91433"
       id="path3832"
       style="fill:none;stroke:#df5041;stroke-width:1.79991055;stroke-linecap:butt;stroke-linejoin:miter;stroke-miterlimit:4;stroke-opacity:1;stroke-dasharray:3.5998209, 1.79991045;stroke-dashoffset:0;display:inline"
       inkscape:connector-curvature="0" />
    <path
       style="fill:#df5041;fill-opacity:1;stroke:none"
       d="M 144.43126,-0.53364079 C 96.310958,-0.51006397 48.190656,-0.48648714 0.07035676,-0.46291032 -1.0758394,0.59498263 -0.12328772,2.790362 -0.43675784,4.2848717 -0.48285817,66.197615 -0.5289585,128.11036 -0.57505883,190.0231 c 1.04847303,1.14564 3.25515253,0.1917 4.74778313,0.50396 94.8731437,0 189.7462857,0 284.6194357,0 1.1462,-1.0579 0.19142,-3.25328 0.50394,-4.74779 3e-5,-61.95989 0,-123.91979 0,-185.87968663 -1.05788,-1.14619467 -3.25326,-0.18994285 -4.74777,-0.50187535 -46.70569,0.0228837 -93.41138,0.0457675 -140.11707,0.0686512 z m 1.44113,6.71055389 c 6.71693,4.1144339 12.90906,8.9015329 19.15028,13.6775059 7.55043,5.238134 15.66504,9.678102 23.12754,15.08784 10.54333,7.339037 21.54906,13.939616 32.73369,20.245345 20.48352,12.039535 40.06978,25.656244 59.71621,39.013465 0.9314,0.914288 2.60643,1.443507 3.08177,2.678838 -0.60944,2.005899 -3.0762,2.765026 -4.62824,3.911383 -12.01747,7.56251 -23.14309,16.45463 -34.33002,25.12476 -6.59039,4.77605 -13.62091,8.9437 -20.16577,13.7408 -5.27687,3.74235 -11.37122,6.10237 -16.59294,9.93494 -6.91944,5.0288 -14.52272,8.89142 -21.82235,13.2957 -8.56511,5.46633 -17.44335,10.40681 -26.12133,15.6862 -4.16474,2.39808 -8.36288,4.99543 -12.59277,7.12601 -1.37586,-0.90725 -2.9835,-1.43367 -4.2897,-2.46562 -6.89727,-3.93304 -13.5138,-8.36701 -20.33464,-12.47979 -8.2173,-5.32314 -16.75933,-10.06638 -25.045643,-15.23293 C 89.53005,151.02057 81.310962,146.47262 73.590134,141.16677 57.42938,130.23787 42.263932,117.57341 24.897984,108.53068 18.34474,104.87479 12.177023,100.54329 6.2504321,95.995776 5.8063329,95.477197 5.3417163,94.570938 6.4212176,94.396842 22.994952,84.134999 39.470912,73.730091 55.691034,62.93812 61.768726,58.668987 67.541051,54.02522 73.932322,50.2431 89.906803,40.316635 105.49994,29.782629 121.70159,20.242329 c 7.75511,-4.736299 15.60278,-9.393031 22.8446,-14.9053403 0.44207,0.2799747 0.88414,0.5599497 1.3262,0.8399244 z"
       id="path3002"
       inkscape:connector-curvature="0"
       transform="translate(175.26439,144.24008)" />
  </g>
</svg>
